<?xml version="1.0" encoding="UTF-8"?>
<svg version="1.1" xmlns="http://www.w3.org/2000/svg" width="30" height="30">
<path d="M0 0 C0.70640625 0.10699219 1.4128125 0.21398438 2.140625 0.32421875 C3.015625 2.38671875 3.015625 2.38671875 3.140625 5.32421875 C1.73435439 7.2627087 0.19249165 8.89720677 -1.51171875 10.578125 C-3.26670418 12.48436249 -3.26670418 12.48436249 -2.859375 16.32421875 C-1.52816565 18.12995946 -1.52816565 18.12995946 0.203125 19.76171875 C1.87109375 21.57421875 1.87109375 21.57421875 3.140625 23.32421875 C3.015625 26.26171875 3.015625 26.26171875 2.140625 28.32421875 C0.0390625 28.6796875 0.0390625 28.6796875 -2.859375 28.32421875 C-5.2206719 26.48732898 -7.16956707 24.75874425 -9.234375 22.63671875 C-9.79253906 22.10626953 -10.35070312 21.57582031 -10.92578125 21.02929688 C-14.80225282 17.12889647 -14.80225282 17.12889647 -15.0390625 13.79296875 C-13.4474254 10.46212555 -11.21616644 8.06065712 -8.609375 5.51171875 C-8.13113281 5.00962891 -7.65289062 4.50753906 -7.16015625 3.99023438 C-4.78465349 1.62438813 -3.38255921 0.38354155 0 0 Z " fill="#275B54" transform="translate(20.859375,0.67578125)"/>
<path d="M0 0 C3.21524305 1.40844718 5.32183868 3.10344786 7.75 5.625 C8.67039062 6.57246094 8.67039062 6.57246094 9.609375 7.5390625 C10.29773438 8.26222656 10.29773438 8.26222656 11 9 C10.67 9.66 10.34 10.32 10 11 C5.57165324 9.60823388 2.96898547 7.56278256 0 4 C0 2.68 0 1.36 0 0 Z " fill="#316D65" transform="translate(8,15)"/>
<path d="M0 0 C0.99 0.33 1.98 0.66 3 1 C1.84371094 2.12148437 1.84371094 2.12148437 0.6640625 3.265625 C-0.34922356 4.26014651 -1.36222975 5.25495323 -2.375 6.25 C-2.88289062 6.74113281 -3.39078125 7.23226563 -3.9140625 7.73828125 C-6.51583648 10.30582136 -8.64588097 12.57391571 -10 16 C-10.83984375 13.86328125 -10.83984375 13.86328125 -11 11 C-9.23526782 8.78736625 -7.63273028 7.06247277 -5.5625 5.1875 C-5.03333984 4.68541016 -4.50417969 4.18332031 -3.95898438 3.66601562 C-2.65239036 2.43004832 -1.32783937 1.21311405 0 0 Z " fill="#1E4741" transform="translate(17,2)"/>
<path d="M0 0 C0.66 0.66 1.32 1.32 2 2 C0.4169423 6.2742558 -2.50568404 8.26531794 -6 11 C-6.33 9.68 -6.66 8.36 -7 7 C-6.01 6.67 -5.02 6.34 -4 6 C-4 5.34 -4 4.68 -4 4 C-3.01 3.67 -2.02 3.34 -1 3 C-0.67 2.01 -0.34 1.02 0 0 Z " fill="#214E48" transform="translate(22,3)"/>
</svg>
