<?xml version="1.0" encoding="UTF-8"?>
<svg version="1.1" xmlns="http://www.w3.org/2000/svg" width="112" height="113">
<path d="M0 0 C0.81053833 -0.00525696 1.62107666 -0.01051392 2.45617676 -0.01593018 C5.12202512 -0.02907968 7.78727109 -0.02041015 10.453125 -0.01025391 C12.31347772 -0.0122761 14.17382967 -0.01518874 16.03417969 -0.01895142 C19.92781136 -0.02336792 23.82123617 -0.01696539 27.71484375 -0.00292969 C32.6982266 0.01416178 37.68112467 0.00431699 42.66448975 -0.01364708 C46.50443148 -0.0245031 50.34425886 -0.02103023 54.1842041 -0.0132637 C56.02136289 -0.01126672 57.85853217 -0.01370329 59.69567871 -0.02070236 C62.26614773 -0.02834681 64.83583871 -0.01667107 67.40625 0 C68.53794617 -0.00910904 68.53794617 -0.00910904 69.69250488 -0.0184021 C75.86330626 0.05549971 79.75431974 1.71130465 84.390625 5.70068359 C89.03777802 11.101429 90.14693426 15.78033622 90.09130859 22.77685547 C90.09656555 23.59714737 90.10182251 24.41743927 90.10723877 25.2625885 C90.1203898 27.96090003 90.11171817 30.65861657 90.1015625 33.35693359 C90.10358464 35.23970655 90.10649726 37.12247874 90.11026001 39.00524902 C90.11467673 42.94595822 90.1082733 46.88646304 90.09423828 50.82714844 C90.07714682 55.87106343 90.08699149 60.91449948 90.10495567 65.95839691 C90.11581112 69.84466135 90.11233908 73.73081279 90.1045723 77.61708069 C90.10257516 79.47656817 90.10501244 81.336066 90.11201096 83.19554138 C90.11965444 85.79714017 90.10798095 88.39797 90.09130859 90.99951172 C90.09738129 91.76332657 90.10345398 92.52714142 90.10971069 93.31410217 C90.03630359 99.51660891 88.40142306 103.41448585 84.390625 108.07568359 C79.02027901 112.69667898 74.36615123 113.83238754 67.40625 113.77636719 C66.1904425 113.78425262 66.1904425 113.78425262 64.95007324 113.79229736 C62.28422488 113.80544686 59.61897891 113.79677734 56.953125 113.78662109 C55.09277228 113.78864328 53.23242033 113.79155593 51.37207031 113.7953186 C47.47843864 113.79973511 43.58501383 113.79333258 39.69140625 113.77929688 C34.7080234 113.76220541 29.72512533 113.7720502 24.74176025 113.79001427 C20.90181852 113.80087029 17.06199114 113.79739742 13.2220459 113.78963089 C11.38488711 113.78763391 9.54771783 113.79007047 7.71057129 113.79706955 C5.14010227 113.80471399 2.57041129 113.79303826 0 113.77636719 C-0.75446411 113.78243988 -1.50892822 113.78851257 -2.28625488 113.79476929 C-8.45705626 113.72086747 -12.34806974 112.06506253 -16.984375 108.07568359 C-21.63152802 102.67493819 -22.74068426 97.99603097 -22.68505859 90.99951172 C-22.69031555 90.17921982 -22.69557251 89.35892792 -22.70098877 88.51377869 C-22.7141398 85.81546715 -22.70546817 83.11775062 -22.6953125 80.41943359 C-22.69733464 78.53666064 -22.70024726 76.65388845 -22.70401001 74.77111816 C-22.70842673 70.83040897 -22.7020233 66.88990414 -22.68798828 62.94921875 C-22.67089682 57.90530376 -22.68074149 52.86186771 -22.69870567 47.81797028 C-22.70956112 43.93170583 -22.70608908 40.0455544 -22.6983223 36.1592865 C-22.69632516 34.29979902 -22.69876244 32.44030119 -22.70576096 30.58082581 C-22.71340444 27.97922702 -22.70173095 25.37839719 -22.68505859 22.77685547 C-22.69113129 22.01304062 -22.69720398 21.24922577 -22.70346069 20.46226501 C-22.63005359 14.25975828 -20.99517306 10.36188134 -16.984375 5.70068359 C-11.61402901 1.07968821 -6.95990123 -0.05602035 0 0 Z " fill="#FDFEFE" transform="translate(22.296875,-0.38818359375)"/>
<path d="M0 0 C0.81053833 -0.00525696 1.62107666 -0.01051392 2.45617676 -0.01593018 C5.12202512 -0.02907968 7.78727109 -0.02041015 10.453125 -0.01025391 C12.31347772 -0.0122761 14.17382967 -0.01518874 16.03417969 -0.01895142 C19.92781136 -0.02336792 23.82123617 -0.01696539 27.71484375 -0.00292969 C32.6982266 0.01416178 37.68112467 0.00431699 42.66448975 -0.01364708 C46.50443148 -0.0245031 50.34425886 -0.02103023 54.1842041 -0.0132637 C56.02136289 -0.01126672 57.85853217 -0.01370329 59.69567871 -0.02070236 C62.26614773 -0.02834681 64.83583871 -0.01667107 67.40625 0 C68.53794617 -0.00910904 68.53794617 -0.00910904 69.69250488 -0.0184021 C75.86330626 0.05549971 79.75431974 1.71130465 84.390625 5.70068359 C89.03777802 11.101429 90.14693426 15.78033622 90.09130859 22.77685547 C90.09656555 23.59714737 90.10182251 24.41743927 90.10723877 25.2625885 C90.1203898 27.96090003 90.11171817 30.65861657 90.1015625 33.35693359 C90.10358464 35.23970655 90.10649726 37.12247874 90.11026001 39.00524902 C90.11467673 42.94595822 90.1082733 46.88646304 90.09423828 50.82714844 C90.07714682 55.87106343 90.08699149 60.91449948 90.10495567 65.95839691 C90.11581112 69.84466135 90.11233908 73.73081279 90.1045723 77.61708069 C90.10257516 79.47656817 90.10501244 81.336066 90.11201096 83.19554138 C90.11965444 85.79714017 90.10798095 88.39797 90.09130859 90.99951172 C90.09738129 91.76332657 90.10345398 92.52714142 90.10971069 93.31410217 C90.03630359 99.51660891 88.40142306 103.41448585 84.390625 108.07568359 C79.02027901 112.69667898 74.36615123 113.83238754 67.40625 113.77636719 C66.1904425 113.78425262 66.1904425 113.78425262 64.95007324 113.79229736 C62.28422488 113.80544686 59.61897891 113.79677734 56.953125 113.78662109 C55.09277228 113.78864328 53.23242033 113.79155593 51.37207031 113.7953186 C47.47843864 113.79973511 43.58501383 113.79333258 39.69140625 113.77929688 C34.7080234 113.76220541 29.72512533 113.7720502 24.74176025 113.79001427 C20.90181852 113.80087029 17.06199114 113.79739742 13.2220459 113.78963089 C11.38488711 113.78763391 9.54771783 113.79007047 7.71057129 113.79706955 C5.14010227 113.80471399 2.57041129 113.79303826 0 113.77636719 C-0.75446411 113.78243988 -1.50892822 113.78851257 -2.28625488 113.79476929 C-8.45705626 113.72086747 -12.34806974 112.06506253 -16.984375 108.07568359 C-21.63152802 102.67493819 -22.74068426 97.99603097 -22.68505859 90.99951172 C-22.69031555 90.17921982 -22.69557251 89.35892792 -22.70098877 88.51377869 C-22.7141398 85.81546715 -22.70546817 83.11775062 -22.6953125 80.41943359 C-22.69733464 78.53666064 -22.70024726 76.65388845 -22.70401001 74.77111816 C-22.70842673 70.83040897 -22.7020233 66.88990414 -22.68798828 62.94921875 C-22.67089682 57.90530376 -22.68074149 52.86186771 -22.69870567 47.81797028 C-22.70956112 43.93170583 -22.70608908 40.0455544 -22.6983223 36.1592865 C-22.69632516 34.29979902 -22.69876244 32.44030119 -22.70576096 30.58082581 C-22.71340444 27.97922702 -22.70173095 25.37839719 -22.68505859 22.77685547 C-22.69113129 22.01304062 -22.69720398 21.24922577 -22.70346069 20.46226501 C-22.63005359 14.25975828 -20.99517306 10.36188134 -16.984375 5.70068359 C-11.61402901 1.07968821 -6.95990123 -0.05602035 0 0 Z M32.703125 3.38818359 C32.703125 4.04818359 32.703125 4.70818359 32.703125 5.38818359 C32.15785156 5.65888672 31.61257812 5.92958984 31.05078125 6.20849609 C28.40234289 7.53932535 25.76483203 8.88502861 23.140625 10.26318359 C22.19058594 10.75560547 21.24054687 11.24802734 20.26171875 11.75537109 C17.64739707 13.42374737 16.25829422 14.72366033 14.703125 17.38818359 C14.45225776 20.5555078 14.45225776 20.5555078 14.703125 23.38818359 C13.589375 23.34693359 12.475625 23.30568359 11.328125 23.26318359 C7.65946475 22.97696501 7.65946475 22.97696501 5.703125 25.38818359 C5.703125 26.37818359 5.703125 27.36818359 5.703125 28.38818359 C5.06375 28.53255859 4.424375 28.67693359 3.765625 28.82568359 C1.72767354 29.19825541 1.72767354 29.19825541 0.703125 30.38818359 C0.63164301 31.74062277 0.61913046 33.09652726 0.640625 34.45068359 C0.66125 35.75005859 0.681875 37.04943359 0.703125 38.38818359 C-0.34875 38.30568359 -1.400625 38.22318359 -2.484375 38.13818359 C-7.13520096 38.44315579 -8.18088755 38.95260769 -11.296875 42.38818359 C-12.92789073 45.12314381 -14.42445195 47.89325391 -15.8671875 50.73193359 C-17.17120043 53.15468986 -18.58530552 55.24112602 -20.296875 57.38818359 C-19.92175781 57.87287109 -19.54664063 58.35755859 -19.16015625 58.85693359 C-16.00787933 62.98586054 -13.11373753 67.15205566 -10.47265625 71.62646484 C-9.21378955 73.51267376 -8.06400521 74.9605513 -6.296875 76.38818359 C-2.67151524 76.6385413 -2.67151524 76.6385413 0.703125 76.38818359 C0.703125 79.02818359 0.703125 81.66818359 0.703125 84.38818359 C2.353125 84.71818359 4.003125 85.04818359 5.703125 85.38818359 C6.033125 87.03818359 6.363125 88.68818359 6.703125 90.38818359 C9.343125 90.38818359 11.983125 90.38818359 14.703125 90.38818359 C14.661875 91.29568359 14.620625 92.20318359 14.578125 93.13818359 C14.70797932 96.51439587 14.80923912 97.67154401 16.703125 100.38818359 C19.02465755 101.8704366 21.2712616 103.18347767 23.703125 104.45068359 C30.44848104 108.00621765 30.44848104 108.00621765 32.703125 111.38818359 C33.363125 111.38818359 34.023125 111.38818359 34.703125 111.38818359 C35.7240625 110.30537109 35.7240625 110.30537109 36.765625 109.20068359 C39.0327218 106.80538787 41.34173499 105.40302792 44.265625 103.88818359 C48.0091098 101.88541923 50.57112566 100.18870416 52.703125 96.38818359 C53.03826094 93.17838223 53.03826094 93.17838223 52.703125 90.38818359 C53.816875 90.40880859 54.930625 90.42943359 56.078125 90.45068359 C59.53528421 90.65199077 59.53528421 90.65199077 61.703125 89.38818359 C61.703125 88.06818359 61.703125 86.74818359 61.703125 85.38818359 C63.353125 85.05818359 65.003125 84.72818359 66.703125 84.38818359 C66.703125 81.74818359 66.703125 79.10818359 66.703125 76.38818359 C67.569375 76.49130859 68.435625 76.59443359 69.328125 76.70068359 C72.86903661 76.37282141 74.57371986 75.60726624 77.19140625 73.21630859 C79.75841577 70.11201801 81.50346432 66.59467216 83.30859375 63.00927734 C84.59467264 60.59202542 85.99925161 58.52430805 87.703125 56.38818359 C87.105 55.84291016 86.506875 55.29763672 85.890625 54.73583984 C82.87859858 51.50329007 81.22700003 47.87485723 79.265625 43.94677734 C77.63708211 41.28003836 76.40151293 39.93306218 73.703125 38.38818359 C70.03597651 38.13754627 70.03597651 38.13754627 66.703125 38.38818359 C66.703125 35.74818359 66.703125 33.10818359 66.703125 30.38818359 C65.053125 30.05818359 63.403125 29.72818359 61.703125 29.38818359 C61.4865625 28.18162109 61.4865625 28.18162109 61.265625 26.95068359 C60.96177251 24.46714654 60.96177251 24.46714654 59.703125 23.38818359 C57.37015067 23.34725422 55.03607275 23.34576636 52.703125 23.38818359 C52.80625 22.50130859 52.909375 21.61443359 53.015625 20.70068359 C52.69115411 17.26129221 52.15568276 16.02739229 49.609375 13.74755859 C46.00569605 11.17772197 42.12428735 9.06982289 38.25 6.93896484 C35.703125 5.38818359 35.703125 5.38818359 34.703125 3.38818359 C34.043125 3.38818359 33.383125 3.38818359 32.703125 3.38818359 Z " fill="#2F6F66" transform="translate(22.296875,-0.38818359375)"/>
<path d="M0 0 C3.99017638 3.04767626 6.22009042 5.63153645 8.625 10.0625 C11.198063 15.02278208 11.198063 15.02278208 15 19 C18.61023099 19.73041853 18.61023099 19.73041853 22 20 C22.33 22.64 22.66 25.28 23 28 C24.32 28.33 25.64 28.66 27 29 C27.33 30.32 27.66 31.64 28 33 C30.64 33.33 33.28 33.66 36 34 C36.08636719 34.69867188 36.17273437 35.39734375 36.26171875 36.1171875 C36.40222656 37.02726562 36.54273438 37.93734375 36.6875 38.875 C36.81511719 39.77992187 36.94273438 40.68484375 37.07421875 41.6171875 C37.7719498 44.20030654 37.7719498 44.20030654 40.25390625 45.13671875 C41.61322266 45.56404297 41.61322266 45.56404297 43 46 C44.77105627 46.94054615 46.5216214 47.9206545 48.25 48.9375 C49.12140625 49.44152344 49.9928125 49.94554687 50.890625 50.46484375 C53 52 53 52 54 55 C54.66 55 55.32 55 56 55 C56.20753906 54.4121875 56.41507813 53.824375 56.62890625 53.21875 C58.51963778 50.15910467 60.78380406 49.18197117 63.9375 47.5 C67.83588878 45.41580673 70.73186449 43.86648604 73 40 C73.72045367 36.84881675 73.72045367 36.84881675 74 34 C78.455 33.505 78.455 33.505 83 33 C83 31.68 83 30.36 83 29 C84.65 28.67 86.3 28.34 88 28 C88 25.36 88 22.72 88 20 C89.2375 19.773125 90.475 19.54625 91.75 19.3125 C96.05872991 18.20130123 97.59138529 16.85378354 100 13 C100.47179687 12.19304687 100.94359375 11.38609375 101.4296875 10.5546875 C101.94789062 9.67039062 102.46609375 8.78609375 103 7.875 C103.474375 7.02679688 103.94875 6.17859375 104.4375 5.3046875 C106.06494448 2.90420689 107.66068905 1.66741954 110 0 C110.10162708 6.44110602 110.17156052 12.8820044 110.21972656 19.32373047 C110.23981107 21.51391324 110.26708417 23.70404259 110.30175781 25.89404297 C110.35041409 29.04668376 110.37300078 32.19861404 110.390625 35.3515625 C110.41127014 36.32678864 110.43191528 37.30201477 110.45318604 38.30679321 C110.45507362 44.05783111 109.94219812 47.49018931 106 52 C100.26221752 56.33261126 96.06267468 57.15087966 89.04370117 57.16113281 C88.23360092 57.16609772 87.42350067 57.17106262 86.58885193 57.17617798 C83.90688224 57.19079146 81.22497172 57.19760046 78.54296875 57.203125 C76.67832945 57.20887739 74.81369017 57.21463511 72.9490509 57.22039795 C69.03756434 57.2309058 65.12609831 57.23674979 61.21459961 57.24023438 C56.2076378 57.24571678 51.20094824 57.26974031 46.19407177 57.29820633 C42.34128532 57.31685003 38.48856421 57.32203925 34.63573647 57.32357025 C32.79018987 57.3265937 30.94464434 57.33461185 29.09914207 57.34775543 C26.5140462 57.36485119 23.92961222 57.3629271 21.34448242 57.35644531 C20.58530518 57.3656601 19.82612793 57.37487488 19.04394531 57.3843689 C12.75578919 57.33509405 8.86720116 55.6974556 4.25 51.5 C1.11862183 48.02069092 -0.25245988 46.07392792 -0.22705078 41.43676758 C-0.22689972 40.51603958 -0.22674866 39.59531158 -0.22659302 38.64668274 C-0.21627045 37.65597275 -0.20594788 36.66526276 -0.1953125 35.64453125 C-0.1924826 34.62775803 -0.18965271 33.6109848 -0.18673706 32.56340027 C-0.17553383 29.31298092 -0.15042886 26.06283619 -0.125 22.8125 C-0.11497039 20.61003002 -0.10584451 18.40755572 -0.09765625 16.20507812 C-0.07559405 10.80329157 -0.04211508 5.40166541 0 0 Z " fill="#378E82" transform="translate(1,56)"/>
</svg>
