<?xml version="1.0" encoding="UTF-8"?>
<svg version="1.1" xmlns="http://www.w3.org/2000/svg" width="30" height="30">
<path d="M0 0 C-1.36241147 4.14551939 -3.15262977 6.45819378 -6.3125 9.4375 C-13.17266021 15.95298882 -13.17266021 15.95298882 -18 24 C-22.97968095 23.84910058 -25.32187142 21.11880689 -28.64453125 17.7890625 C-30 16 -30 16 -30 13 C-29.34 13 -28.68 13 -28 13 C-27.67 11.68 -27.34 10.36 -27 9 C-25.8553125 9.495 -25.8553125 9.495 -24.6875 10 C-22.00930865 11.17436686 -22.00930865 11.17436686 -19 11 C-17.84954287 9.84954287 -16.70376461 8.6939056 -15.5859375 7.51171875 C-11.03739889 3.17604278 -6.46560353 -0.48947351 0 0 Z " fill="#CFCFCF" transform="translate(30,3)"/>
</svg>
