<?xml version="1.0" encoding="UTF-8"?>
<svg version="1.1" xmlns="http://www.w3.org/2000/svg" width="40" height="40">
<path d="M0 0 C1.32 0 2.64 0 4 0 C4 2.31 4 4.62 4 7 C4.99 6.67 5.98 6.34 7 6 C7.99 6 8.98 6 10 6 C12.15028304 5.05021103 12.15028304 5.05021103 14 4 C14.66 4.66 15.32 5.32 16 6 C15.67 6.5775 15.34 7.155 15 7.75 C13.72924102 10.19883862 13.72924102 10.19883862 14 14 C13.67 14.66 13.34 15.32 13 16 C15.31 16 17.62 16 20 16 C20 17.32 20 18.64 20 20 C17.03 20.495 17.03 20.495 14 21 C13.21717352 22.79199472 13.21717352 22.79199472 13 25 C13.98028616 26.34789347 14.97971135 27.68212715 16 29 C15.67 29.99 15.34 30.98 15 32 C12.13275314 31.42655063 11.1385485 31.1385485 9 29 C8.01 29.33 7.02 29.66 6 30 C5.34 29.67 4.68 29.34 4 29 C4 31.31 4 33.62 4 36 C2.68 36 1.36 36 0 36 C-0.33 34.02 -0.66 32.04 -1 30 C-2.79199472 29.21717352 -2.79199472 29.21717352 -5 29 C-6.34789347 29.98028616 -7.68212715 30.97971135 -9 32 C-9.99 31.67 -10.98 31.34 -12 31 C-11.42655063 28.13275314 -11.1385485 27.1385485 -9 25 C-9.33 24.01 -9.66 23.02 -10 22 C-9.67 21.34 -9.34 20.68 -9 20 C-11.31 20 -13.62 20 -16 20 C-16 18.68 -16 17.36 -16 16 C-14.02 15.67 -12.04 15.34 -10 15 C-9.21717352 13.20800528 -9.21717352 13.20800528 -9 11 C-9.98028616 9.65210653 -10.97971135 8.31787285 -12 7 C-11.67 6.01 -11.34 5.02 -11 4 C-8.13275314 4.57344937 -7.1385485 4.8614515 -5 7 C-4.01 6.67 -3.02 6.34 -2 6 C-1.34 6.33 -0.68 6.66 0 7 C0 4.69 0 2.38 0 0 Z M0.25 11.3125 C-1.29761378 13.0517724 -1.29761378 13.0517724 -1 16 C-0.34 16 0.32 16 1 16 C1.2475 16.639375 1.495 17.27875 1.75 17.9375 C2.82410942 20.13171217 2.82410942 20.13171217 4.9375 20.9375 C7.0677405 21.20378095 7.0677405 21.20378095 8.75 19.8125 C10.37848864 17.81814804 10.37848864 17.81814804 10 14 C8.33333333 11.66666667 8.33333333 11.66666667 6 10 C2.16875 9.6 2.16875 9.6 0.25 11.3125 Z M-5 13 C-6.43155899 14.21589984 -6.43155899 14.21589984 -6.3125 17.8125 C-6.25377389 20.78617685 -6.07349312 21.87751147 -4.5 24.5 C-0.85991277 26.68405234 1.79654733 26.28023018 6 26 C6 25.34 6 24.68 6 24 C5.44570313 23.87625 4.89140625 23.7525 4.3203125 23.625 C1.96993703 22.95585396 0.07596532 22.30065582 -2 21 C-3.34938074 18.26345587 -3.59621626 16.07885104 -4 13 C-4.33 13 -4.66 13 -5 13 Z " fill="#214F49" transform="translate(18,2)"/>
<path d="M0 0 C3.3 0.66 6.6 1.32 10 2 C10 3.32 10 4.64 10 6 C8.02 6.33 6.04 6.66 4 7 C4 7.66 4 8.32 4 9 C2.1875 11.125 2.1875 11.125 0 13 C-0.99 13 -1.98 13 -3 13 C-2.67 12.01 -2.34 11.02 -2 10 C-3.32 9.34 -4.64 8.68 -6 8 C-4.7934375 7.13375 -4.7934375 7.13375 -3.5625 6.25 C-0.62146796 4.09797845 -0.62146796 4.09797845 0 0 Z " fill="#275A53" transform="translate(28,16)"/>
<path d="M0 0 C2.86724686 0.57344937 3.8614515 0.8614515 6 3 C6.99 2.67 7.98 2.34 9 2 C9 2.66 9 3.32 9 4 C7.35 4.33 5.7 4.66 4 5 C3.67 6.32 3.34 7.64 3 9 C0.9375 6.75 0.9375 6.75 -1 4 C-0.75 1.6875 -0.75 1.6875 0 0 Z " fill="#142D29" transform="translate(7,6)"/>
<path d="M0 0 C2.0625 2.25 2.0625 2.25 4 5 C3.75 7.3125 3.75 7.3125 3 9 C-0.35595828 8.40072174 -2.37801226 7.15377564 -5 5 C-3.68 4.67 -2.36 4.34 -1 4 C-0.67 2.68 -0.34 1.36 0 0 Z " fill="#142E2B" transform="translate(30,25)"/>
<path d="M0 0 C2.1875 0.3125 2.1875 0.3125 4 1 C3.40072174 4.35595828 2.15377564 6.37801226 0 9 C-0.33 7.68 -0.66 6.36 -1 5 C-1.99 5 -2.98 5 -4 5 C-2.89113011 2.78226023 -1.9581636 1.52301613 0 0 Z " fill="#142F2C" transform="translate(30,6)"/>
<path d="M0 0 C1.32 0 2.64 0 4 0 C4 2.31 4 4.62 4 7 C2.68 7 1.36 7 0 7 C0 4.69 0 2.38 0 0 Z " fill="#163632" transform="translate(18,31)"/>
<path d="M0 0 C2.31 0 4.62 0 7 0 C7 1.32 7 2.64 7 4 C4.69 4 2.38 4 0 4 C0 2.68 0 1.36 0 0 Z " fill="#163632" transform="translate(31,18)"/>
<path d="M0 0 C2.31 0 4.62 0 7 0 C7 1.32 7 2.64 7 4 C4.69 4 2.38 4 0 4 C0 2.68 0 1.36 0 0 Z " fill="#153632" transform="translate(2,18)"/>
<path d="M0 0 C1.32 0 2.64 0 4 0 C4 2.31 4 4.62 4 7 C2.68 7 1.36 7 0 7 C0 4.69 0 2.38 0 0 Z " fill="#163732" transform="translate(18,2)"/>
<path d="M0 0 C0.99 0 1.98 0 3 0 C2.47731534 2.76276177 1.89130413 5.3260876 1 8 C0.34 8 -0.32 8 -1 8 C-1.04241723 5.66705225 -1.04092937 3.33297433 -1 1 C-0.67 0.67 -0.34 0.34 0 0 Z " fill="#295F58" transform="translate(16,10)"/>
<path d="M0 0 C0.66 0.33 1.32 0.66 2 1 C2 1.66 2 2.32 2 3 C2.66 2.67 3.32 2.34 4 2 C3.34 3.32 2.68 4.64 2 6 C0.68 5.67 -0.64 5.34 -2 5 C-1.125 1.125 -1.125 1.125 0 0 Z " fill="#102623" transform="translate(8,28)"/>
<path d="M0 0 C3 1 3 1 4.1875 3.0625 C4.455625 3.701875 4.72375 4.34125 5 5 C3.68 5 2.36 5 1 5 C0.67 3.35 0.34 1.7 0 0 Z " fill="#2D6961" transform="translate(10,23)"/>
</svg>
