<?xml version="1.0" encoding="UTF-8"?>
<svg version="1.1" xmlns="http://www.w3.org/2000/svg" width="191" height="265">
<path d="M0 0 C1.27930231 5.42394253 2.02189199 10.67703748 0 16 C-2.82489887 19.41147777 -6.14333596 22.18566347 -9.5 25.0625 C-15.69780808 30.59879866 -20.21808818 35.06909802 -21.30078125 43.56396484 C-21.50474734 51.63270236 -20.32621004 57.12732652 -14.6953125 63.12109375 C-12.13283468 65.58741393 -9.50522745 67.9330198 -6.80493164 70.24731445 C0.48737937 76.67243172 0.48737937 76.67243172 1.26171875 81.734375 C1.3883883 85.6148799 0.88942706 89.2290373 0 93 C-6.86129538 87.38621287 -12.63061946 81.36938054 -19 75 C-19.33 89.85 -19.66 104.7 -20 120 C-13.4 120 -6.8 120 0 120 C0 123.63 0 127.26 0 131 C-6.6 131 -13.2 131 -20 131 C-19.82597656 132.63066406 -19.65195313 134.26132813 -19.47265625 135.94140625 C-18.11331313 154.44121648 -18.11331313 154.44121648 -23.33984375 161 C-26.89957858 164.73139172 -30.80087224 168.01072731 -35 171 C-33.39458273 174.67194443 -31.36904684 176.2753261 -28.19995117 178.70629883 C-23.8414497 182.24382771 -20.52126354 185.37900472 -19.39306641 191.05175781 C-18.84971445 198.40248781 -19.33172922 205.67186829 -20 213 C-13.4 213 -6.8 213 0 213 C0 216.63 0 220.26 0 224 C-21.36487733 224.84069208 -42.69526821 225.16091188 -64.07592773 225.13037109 C-68.16626393 225.12460266 -72.25653547 225.1280209 -76.34686947 225.13394356 C-79.57378105 225.13759005 -82.80067772 225.1363932 -86.0275898 225.13381577 C-87.53550792 225.13316149 -89.04342752 225.13392055 -90.55134392 225.13629532 C-94.69402206 225.1414071 -98.83190312 225.0979765 -102.97369003 225.01391792 C-105.04096065 224.99971866 -107.09547248 225.0671108 -109.1612854 225.14134216 C-117.42729469 225.27436677 -122.70370682 223.88126112 -128.80210972 218.06475163 C-130.32152571 216.53147583 -131.80131059 214.96586849 -133.28125 213.39453125 C-134.3541012 212.30889536 -135.42988791 211.22615346 -136.50842285 210.14616394 C-138.74367404 207.89255453 -140.95210976 205.6167043 -143.14208984 203.3190918 C-145.94619006 200.37826366 -148.7949117 197.48613863 -151.66257477 194.60739613 C-153.87674762 192.3799369 -156.07419086 190.13659873 -158.26609802 187.88724327 C-159.31230891 186.8144668 -160.36173275 185.74481375 -161.41444397 184.6784153 C-162.87771387 183.18796465 -164.3191631 181.67935668 -165.75585938 180.16333008 C-166.98919006 178.88212029 -166.98919006 178.88212029 -168.24743652 177.57502747 C-170.4381018 174.35630054 -170.67701659 172.82128663 -170 169 C-168.2407074 166.42497253 -168.2407074 166.42497253 -165.73999023 163.83666992 C-165.28615967 163.3594751 -164.8323291 162.88228027 -164.36474609 162.390625 C-162.86202122 160.82082506 -161.33750738 159.27474736 -159.80859375 157.73046875 C-158.745643 156.64313413 -157.68298998 155.55550837 -156.62062073 154.46760559 C-154.38766752 152.18971293 -152.14214079 149.92506867 -149.88891602 147.66723633 C-147.02295167 144.79075097 -144.20576702 141.87121582 -141.39839077 138.93767834 C-139.21648314 136.67342706 -137.00303121 134.44206262 -134.78007698 132.21816444 C-133.72850203 131.15591064 -132.68824349 130.08231482 -131.66055107 128.99693871 C-125.94632465 122.9896199 -121.19786448 119.20237083 -112.73852539 118.8371582 C-110.49170018 118.84221395 -108.24356044 118.87881565 -106 119 C-106.76803955 118.51893799 -107.5360791 118.03787598 -108.32739258 117.54223633 C-111.87725686 115.16171621 -114.30330486 112.91397667 -116 109 C-117.4614799 100.11491313 -117.61023567 89.87637493 -116 81 C-114.6472168 79.14819336 -114.6472168 79.14819336 -113 78 C-110 77.5625 -110 77.5625 -107 78 C-104.9295881 80.11087891 -104.0561017 81.37460616 -103.78979492 84.34326172 C-103.85271729 85.19678223 -103.91563965 86.05030273 -103.98046875 86.9296875 C-104.00818359 87.89132813 -104.03589844 88.85296875 -104.06445312 89.84375 C-104.14499226 91.82782512 -104.26840463 93.81073415 -104.43945312 95.7890625 C-104.53510379 102.67591035 -102.19964049 107.54917406 -97.79296875 112.671875 C-90.18427918 120.42635696 -81.4643261 120.52313355 -71.08387756 120.62313843 C-67.77135154 120.59179467 -64.4632773 120.52121902 -61.15209961 120.42486572 C-57.74624093 120.34108316 -54.34032672 120.33836288 -50.93359375 120.328125 C-44.28660851 120.29211683 -37.64463912 120.17731224 -31 120 C-30.80465119 112.67945433 -30.68778874 105.36182786 -30.66578102 98.03858757 C-30.65320189 94.63593616 -30.61557801 91.23774763 -30.51660156 87.83642578 C-29.52236967 69.32393819 -29.52236967 69.32393819 -37.21875 53.21875 C-46.90644676 44.42908944 -61.69350863 46.22144871 -73.84790039 46.57513428 C-77.25375907 46.65891684 -80.65967328 46.66163712 -84.06640625 46.671875 C-90.71339149 46.70788317 -97.35536088 46.82268776 -104 47 C-103.94779297 48.87945312 -103.94779297 48.87945312 -103.89453125 50.796875 C-103.86638872 52.44790324 -103.83908906 54.09894601 -103.8125 55.75 C-103.78736328 56.575 -103.76222656 57.4 -103.73632812 58.25 C-103.66204953 64.39036386 -103.66204953 64.39036386 -105.39453125 67.515625 C-107.36911772 69.34127672 -108.28537789 70 -111 70 C-113.59570312 68.38476562 -113.59570312 68.38476562 -116 66 C-116.61523438 63.13085938 -116.61523438 63.13085938 -116.59375 59.84375 C-116.59117188 58.65652344 -116.58859375 57.46929687 -116.5859375 56.24609375 C-116.55757812 55.00988281 -116.52921875 53.77367187 -116.5 52.5 C-116.50257812 51.26378906 -116.50515625 50.02757812 -116.5078125 48.75390625 C-116.39468217 38.33460293 -116.39468217 38.33460293 -113 35 C-110.01109314 34.45169067 -110.01109314 34.45169067 -106.30053711 34.38720703 C-105.28521912 34.36223648 -105.28521912 34.36223648 -104.24938965 34.33676147 C-102.0084739 34.28852578 -99.76872386 34.27101011 -97.52734375 34.2578125 C-95.96374675 34.23987124 -94.4001532 34.22162739 -92.83656311 34.20309448 C-89.55379918 34.17009246 -86.27144336 34.15471261 -82.98852539 34.14892578 C-78.8032272 34.13819996 -74.62182989 34.06305184 -70.43762875 33.97143745 C-67.20390804 33.91158992 -63.97110539 33.89747217 -60.73687935 33.89547348 C-59.195911 33.88711628 -57.65493393 33.86243552 -56.1145153 33.82043839 C-44.08469769 33.51878862 -44.08469769 33.51878862 -38.76052856 37.30169678 C-36.29082542 39.75584269 -34.08703668 42.21674407 -32 45 C-32.11686157 43.51876144 -32.11686157 43.51876144 -32.23608398 42.00759888 C-32.59857253 35.68794059 -32.17084758 31.01421506 -28.12109375 25.94970703 C-24.32143199 21.73506185 -20.17333418 17.90077991 -16 14.0625 C-14.5645671 12.68882183 -13.13224163 11.31188879 -11.703125 9.93164062 C-1.34495442 0 -1.34495442 0 0 0 Z M-137.4375 151 C-139.25422539 152.93230718 -141.07646137 154.85944888 -142.90429688 156.78125 C-147.33484748 161.46314928 -151.69306604 166.20429118 -156 171 C-152.38985877 179.00748597 -144.86914262 185.27511256 -138.87719727 191.53710938 C-137.18142328 193.33086859 -135.5085414 195.14657835 -133.8605957 196.984375 C-122.70526266 209.45364463 -122.70526266 209.45364463 -107.47186279 215.29656982 C-98.02920944 215.70435643 -91.79539182 212.94459675 -84.69737244 206.81622314 C-80.08101267 202.41794655 -75.81985584 197.74233077 -71.5625 193 C-69.74577461 191.06769282 -67.92353863 189.14055112 -66.09570312 187.21875 C-61.66515252 182.53685072 -57.30693396 177.79570882 -53 173 C-56.61014123 164.99251403 -64.13085738 158.72488744 -70.12280273 152.46289062 C-71.81857672 150.66913141 -73.4914586 148.85342165 -75.1394043 147.015625 C-86.29473734 134.54635537 -86.29473734 134.54635537 -101.52813721 128.70343018 C-118.0245653 127.99102211 -127.22359528 139.62258253 -137.4375 151 Z M-77 131 C-73.01210497 135.6525442 -69.06156223 140.07770099 -64.7265625 144.37109375 C-64.15795502 144.93828629 -63.58934753 145.50547882 -63.00350952 146.08985901 C-61.21303764 147.87479913 -59.41909516 149.65620256 -57.625 151.4375 C-56.39950677 152.65796939 -55.17424428 153.87867053 -53.94921875 155.09960938 C-50.96880226 158.06908756 -47.98527106 161.03540257 -45 164 C-43.989375 163.154375 -42.97875 162.30875 -41.9375 161.4375 C-41.36902344 160.96183594 -40.80054688 160.48617187 -40.21484375 159.99609375 C-37.0260864 157.1222754 -34.03537521 154.03537521 -31 151 C-31 144.4 -31 137.8 -31 131 C-46.18 131 -61.36 131 -77 131 Z M-48.05102539 182.92163086 C-48.69161392 183.55906723 -49.33220245 184.1965036 -49.99220276 184.85325623 C-50.68700241 185.55008011 -51.38180206 186.24690399 -52.09765625 186.96484375 C-52.80651474 187.67274551 -53.51537323 188.38064728 -54.24571228 189.11000061 C-55.74747772 190.61108393 -57.24797456 192.1134373 -58.74731445 193.61694336 C-61.05243726 195.92741391 -63.36283112 198.23251607 -65.67382812 200.53710938 C-67.12792493 201.99186695 -68.58171151 203.44693469 -70.03515625 204.90234375 C-70.73198013 205.5971434 -71.42880402 206.29194305 -72.14674377 207.00779724 C-72.78418015 207.64838577 -73.42161652 208.2889743 -74.07836914 208.94897461 C-74.6438295 209.51523056 -75.20928986 210.08148651 -75.79188538 210.66490173 C-77.11182747 211.82348764 -77.11182747 211.82348764 -77 213 C-61.82 213 -46.64 213 -31 213 C-29.31577147 194.95010457 -29.31577147 194.95010457 -33.80859375 188.203125 C-35.54130918 186.59734113 -35.54130918 186.59734113 -37.4375 185.25 C-38.04916016 184.72019531 -38.66082031 184.19039062 -39.29101562 183.64453125 C-43.86192682 179.48719972 -43.86192682 179.48719972 -48.05102539 182.92163086 Z " fill="#2A625A" transform="translate(191,40)"/>
<path d="" fill="#000000" transform="translate(0,0)"/>
<path d="" fill="#000000" transform="translate(0,0)"/>
</svg>
