<?xml version="1.0" encoding="UTF-8"?>
<svg version="1.1" xmlns="http://www.w3.org/2000/svg" width="22" height="22">
<path d="M0 0 C7.1670282 -0.60737527 7.1670282 -0.60737527 11 2.1875 C13 5 13 5 13.75 7.5 C12.71673655 10.94421152 10.91337923 12.19614107 7.95703125 14.12890625 C5.06088942 15.4180073 2.95268355 14.93621674 0 14 C0 13.01 0 12.02 0 11 C-3.12197478 12.3089572 -3.12197478 12.3089572 -5 15 C-4.34 15 -3.68 15 -3 15 C-3 15.99 -3 16.98 -3 18 C-5.4375 17.625 -5.4375 17.625 -8 17 C-9.59352059 13.81295882 -9.3829977 10.46825691 -9 7 C-7.875 5 -7.875 5 -6 4 C-2.8125 3.8125 -2.8125 3.8125 0 4 C0 2.68 0 1.36 0 0 Z M2 3 C3 5 3 5 3 5 Z M-0.5 5.1875 C-3.84354588 5.96368029 -5.01559292 6.31521395 -7 9 C-5.01432292 8.96744792 -3.02864583 8.93489583 -1.04296875 8.90234375 C1 9 1 9 4 10 C4.66 9.01 5.32 8.02 6 7 C3.11400612 4.64381458 3.11400612 4.64381458 -0.5 5.1875 Z " fill="#B9B9B9" transform="translate(9,2)"/>
<path d="M0 0 C1.32 0.33 2.64 0.66 4 1 C4 1.66 4 2.32 4 3 C4.66 3.33 5.32 3.66 6 4 C5.01 4.33 4.02 4.66 3 5 C3 5.33 3 5.66 3 6 C1.3603125 6.2165625 1.3603125 6.2165625 -0.3125 6.4375 C-3.93122987 6.88288104 -3.93122987 6.88288104 -7 8 C-7.73323796 10.01508358 -7.73323796 10.01508358 -8 12 C-7.01 12 -6.02 12 -5 12 C-5 12.99 -5 13.98 -5 15 C-4.34 15 -3.68 15 -3 15 C-3 15.99 -3 16.98 -3 18 C-5.4375 17.625 -5.4375 17.625 -8 17 C-9.59352059 13.81295882 -9.3829977 10.46825691 -9 7 C-7.875 5 -7.875 5 -6 4 C-2.8125 3.8125 -2.8125 3.8125 0 4 C0 2.68 0 1.36 0 0 Z " fill="#BEBEBE" transform="translate(9,2)"/>
<path d="M0 0 C3.79133356 0.54161908 5.66109564 1.99283725 8 5 C8.625 7.5 8.625 7.5 8 10 C5 12.3125 5 12.3125 2 14 C1.67 13.34 1.34 12.68 1 12 C2.4375 9.375 2.4375 9.375 4 7 C2.35 5.68 0.7 4.36 -1 3 C-0.67 2.01 -0.34 1.02 0 0 Z " fill="#ADADAD" transform="translate(14,2)"/>
<path d="M0 0 C0 0.99 0 1.98 0 3 C-0.99 3.33 -1.98 3.66 -3 4 C-3 3.34 -3 2.68 -3 2 C-4.1446875 2.5259375 -4.1446875 2.5259375 -5.3125 3.0625 C-8 4 -8 4 -11 3 C-10.67 2.01 -10.34 1.02 -10 0 C-6.30458414 -0.95024979 -3.69541586 -0.95024979 0 0 Z " fill="#B3B3B3" transform="translate(12,11)"/>
<path d="M0 0 C1.32 0.33 2.64 0.66 4 1 C4 1.66 4 2.32 4 3 C4.66 3.33 5.32 3.66 6 4 C5.01 4.33 4.02 4.66 3 5 C3 5.33 3 5.66 3 6 C0.36 6 -2.28 6 -5 6 C-4.67 5.34 -4.34 4.68 -4 4 C-2.68 4 -1.36 4 0 4 C0 2.68 0 1.36 0 0 Z " fill="#E3E3E3" transform="translate(9,2)"/>
<path d="M0 0 C1.9375 0.375 1.9375 0.375 4 1 C4.33 1.66 4.66 2.32 5 3 C4.34 3 3.68 3 3 3 C2.67 3.66 2.34 4.32 2 5 C1.01 4.34 0.02 3.68 -1 3 C-0.67 2.01 -0.34 1.02 0 0 Z " fill="#828282" transform="translate(14,2)"/>
</svg>
