<?xml version="1.0" encoding="UTF-8"?>
<svg version="1.1" xmlns="http://www.w3.org/2000/svg" width="22" height="22">
<path d="M0 0 C0 1.32 0 2.64 0 4 C1.423125 3.9690625 1.423125 3.9690625 2.875 3.9375 C6 4 6 4 8 5 C9.1845131 8.55353929 9.26641894 11.27013478 9 15 C7.6875 16.9375 7.6875 16.9375 6 18 C5.01 18 4.02 18 3 18 C3.33 16.35 3.66 14.7 4 13 C2.68 12.34 1.36 11.68 0 11 C0 11.99 0 12.98 0 14 C-3.42069294 15.14023098 -4.61687262 15.12770913 -8 14 C-10.875 11.75 -10.875 11.75 -13 9 C-13.07897412 5.7620611 -12.23779246 4.35193283 -10.4375 1.6875 C-6.86293612 -0.78719807 -4.28853105 -0.28590207 0 0 Z M-4 5 C-4.99 6.485 -4.99 6.485 -6 8 C-4.68 8.99 -3.36 9.98 -2 11 C-2 10.01 -2 9.02 -2 8 C0.64 8.33 3.28 8.66 6 9 C3.93243723 6.2027092 2.85559629 5.97307727 -0.6875 5.3125 C-1.780625 5.209375 -2.87375 5.10625 -4 5 Z M6 9 C7 12 7 12 7 12 Z " fill="#204C46" transform="translate(13,2)"/>
<path d="M0 0 C0 1.32 0 2.64 0 4 C1.423125 3.9690625 1.423125 3.9690625 2.875 3.9375 C6 4 6 4 8 5 C8.4140625 7.06640625 8.4140625 7.06640625 8.625 9.5625 C8.69976563 10.38878906 8.77453125 11.21507812 8.8515625 12.06640625 C8.90054687 12.70449219 8.94953125 13.34257812 9 14 C8.34 13.67 7.68 13.34 7 13 C6.7215625 11.7934375 6.7215625 11.7934375 6.4375 10.5625 C5.27556438 7.83797282 5.27556438 7.83797282 2.87109375 7.2265625 C0.5853941 6.73293722 -1.6838557 6.31930384 -4 6 C-4.33 7.65 -4.66 9.3 -5 11 C-5.33 10.34 -5.66 9.68 -6 9 C-6.99 9 -7.98 9 -9 9 C-8.44706396 4.02357564 -5.06735917 0 0 0 Z " fill="#255850" transform="translate(13,2)"/>
<path d="M0 0 C2.25 0.25 2.25 0.25 4 1 C3.071875 2.1446875 3.071875 2.1446875 2.125 3.3125 C-0.05597052 5.99625809 -0.05597052 5.99625809 -2 9 C-2.33 8.34 -2.66 7.68 -3 7 C-2.67 6.34 -2.34 5.68 -2 5 C-2.66 4.67 -3.32 4.34 -4 4 C-2.25 1.9375 -2.25 1.9375 0 0 Z " fill="#163430" transform="translate(5,2)"/>
</svg>
