<?xml version="1.0" encoding="UTF-8"?>
<svg version="1.1" xmlns="http://www.w3.org/2000/svg" width="393" height="234">
<path d="M0 0 C-4.23816537 5.06623768 -8.67408963 9.80038069 -13.375 14.4375 C-14.33599609 15.39172852 -14.33599609 15.39172852 -15.31640625 16.36523438 C-16.87530879 17.91250332 -18.43651416 19.45736492 -20 21 C-16.44861438 28.84599748 -9.17795196 34.96401182 -3.30444336 41.10986328 C-1.65713828 42.85513193 -0.03273953 44.62233952 1.56665039 46.41162109 C8.94089751 54.64358748 16.11035368 62.60517799 27.51959229 64.23699951 C36.86907976 64.63016469 43.09891261 62.04152632 50.15016174 55.97088623 C54.64946603 51.68573498 58.79563563 47.12719867 62.9375 42.5 C64.70604001 40.6158702 66.48010003 38.73690587 68.25976562 36.86328125 C72.57197101 32.29980282 76.81166104 27.67726531 81 23 C79.38365969 19.57636442 77.5870925 17.36534794 74.8671875 14.70703125 C73.65869141 13.5149707 73.65869141 13.5149707 72.42578125 12.29882812 C71.58402344 11.47833984 70.74226563 10.65785156 69.875 9.8125 C68.20360418 8.1753437 66.53421339 6.536137 64.8671875 4.89453125 C64.12581543 4.17112549 63.38444336 3.44771973 62.62060547 2.70239258 C61 1 61 1 61 0 C73.90947316 -1.93890675 73.90947316 -1.93890675 79.03369141 1.27587891 C83.16883959 4.75595411 86.62561913 8.79358001 90 13 C91.010625 12.154375 92.02125 11.30875 93.0625 10.4375 C94.03123047 9.62732422 94.03123047 9.62732422 95.01953125 8.80078125 C97.02839114 7.05616446 97.02839114 7.05616446 98.63671875 5.04296875 C101.2348325 1.95417008 102.78699906 0.18547917 106.88671875 -0.44140625 C109.62624696 -0.43789853 112.27923846 -0.30996018 115 0 C114.88485674 5.96442111 113.17626017 8.48156706 108.93554688 12.59179688 C108.27619141 13.20087891 107.61683594 13.80996094 106.9375 14.4375 C106.27427734 15.07365234 105.61105469 15.70980469 104.92773438 16.36523438 C103.29794187 17.92467612 101.65586432 19.46834939 100 21 C101.60541727 24.67194443 103.63095316 26.2753261 106.80004883 28.70629883 C111.1585503 32.24382771 114.47873646 35.37900472 115.60693359 41.05175781 C116.14901185 48.38525655 115.7218927 55.69137038 115 63 C116.02770508 62.94501343 116.02770508 62.94501343 117.07617188 62.88891602 C120.21698026 62.74232022 123.35706812 62.65203701 126.5 62.5625 C127.57765625 62.50384766 128.6553125 62.44519531 129.765625 62.38476562 C135.44448794 62.26357038 139.10759456 62.43535377 143.5 66.25 C144.69207524 67.4757927 145.86182949 68.72399882 147 70 C147.8353125 70.80308594 148.670625 71.60617188 149.53125 72.43359375 C150.50578125 73.42552734 150.50578125 73.42552734 151.5 74.4375 C152.50546875 75.45650391 152.50546875 75.45650391 153.53125 76.49609375 C154.0159375 76.99238281 154.500625 77.48867187 155 78 C158.76283717 76.68432267 160.34378989 74.2797952 162.70629883 71.19995117 C166.24382771 66.8414497 169.37900472 63.52126354 175.05175781 62.39306641 C182.38525655 61.85098815 189.69137038 62.2781073 197 63 C196.92144775 62.32122803 196.84289551 61.64245605 196.76196289 60.94311523 C194.67265682 40.11176399 194.67265682 40.11176399 200.33984375 33 C203.89957858 29.26860828 207.80087224 25.98927269 212 23 C209.83006011 18.20021868 206.12125061 15.13791141 202.25585938 11.68554688 C198.39015908 8.02702175 197.22859849 5.52099979 197 0 C200.94119553 -0.92408793 204.06577336 -1.02531142 208 0 C213.00541117 3.55411396 217.00878278 8.38059437 221 13 C222.5159375 11.7315625 222.5159375 11.7315625 224.0625 10.4375 C224.71476562 9.89738281 225.36703125 9.35726563 226.0390625 8.80078125 C228.03435842 7.08026277 228.03435842 7.08026277 229.4609375 5.04296875 C231.59163289 2.27531945 233.28281123 0.28007385 236.87109375 -0.30517578 C241.59907373 -0.60772312 246.28152788 -0.35685924 251 0 C246.76183463 5.06623768 242.32591037 9.80038069 237.625 14.4375 C236.98433594 15.07365234 236.34367187 15.70980469 235.68359375 16.36523438 C234.12469121 17.91250332 232.56348584 19.45736492 231 21 C234.55138562 28.84599748 241.82204804 34.96401182 247.69555664 41.10986328 C249.34286172 42.85513193 250.96726047 44.62233952 252.56665039 46.41162109 C259.94089751 54.64358748 267.11035368 62.60517799 278.51959229 64.23699951 C287.86907976 64.63016469 294.09891261 62.04152632 301.15016174 55.97088623 C305.64946603 51.68573498 309.79563563 47.12719867 313.9375 42.5 C315.70604001 40.6158702 317.48010003 38.73690587 319.25976562 36.86328125 C323.57197101 32.29980282 327.81166104 27.67726531 332 23 C330.38365969 19.57636442 328.5870925 17.36534794 325.8671875 14.70703125 C324.65869141 13.5149707 324.65869141 13.5149707 323.42578125 12.29882812 C322.58402344 11.47833984 321.74226563 10.65785156 320.875 9.8125 C319.20360418 8.1753437 317.53421339 6.536137 315.8671875 4.89453125 C315.12581543 4.17112549 314.38444336 3.44771973 313.62060547 2.70239258 C312 1 312 1 312 0 C317.4812883 -1.292828 322.59267457 -1.89917902 328 0 C331.94390678 2.61856727 335.23138542 5.71131279 338.5625 9.0625 C339.83927612 10.33154175 339.83927612 10.33154175 341.1418457 11.6262207 C345.5877382 16.39561794 345.5877382 16.39561794 347 19 C346.76703068 24.59088069 345.55291307 27.19334745 341.60375977 31.09326172 C341.14840851 31.55109543 340.69305725 32.00892914 340.22390747 32.4806366 C338.72700553 33.97845105 337.2099451 35.45384088 335.69140625 36.9296875 C334.64263862 37.9697935 333.59512506 39.01116541 332.54881287 40.05374146 C329.79928278 42.78608903 327.03178378 45.49952352 324.26049805 48.20977783 C321.99690226 50.4296802 319.74645487 52.66265401 317.49656773 54.89643669 C314.81576351 57.55765784 312.12951734 60.21334911 309.44140625 62.8671875 C308.92782625 63.3743417 308.41424625 63.8814959 307.88510323 64.4040184 C306.43484831 65.83333049 304.98034356 67.25832664 303.52563477 68.68310547 C302.69814224 69.49472137 301.87064972 70.30633728 301.01808167 71.14254761 C297.46350412 74.41419844 294.62786107 74.2600452 289.875 74.5625 C287.95300781 74.68818359 287.95300781 74.68818359 285.9921875 74.81640625 C285.00476563 74.87699219 284.01734375 74.93757813 283 75 C283.63808594 75.62648438 284.27617187 76.25296875 284.93359375 76.8984375 C285.75988281 77.71570313 286.58617187 78.53296875 287.4375 79.375 C288.26121094 80.18710938 289.08492188 80.99921875 289.93359375 81.8359375 C294.57820174 86.70004492 293.2237361 92.99287209 293.25 99.375 C293.2809375 101.24285156 293.2809375 101.24285156 293.3125 103.1484375 C293.31765625 104.3446875 293.3228125 105.5409375 293.328125 106.7734375 C293.3374707 107.87091309 293.34681641 108.96838867 293.35644531 110.09912109 C292.95854573 113.33736965 292.27922036 114.70100184 290 117 C287.5625 117.5625 287.5625 117.5625 285 117 C282.796875 115.11328125 282.796875 115.11328125 281 112 C280.84632574 107.62483153 281.43449235 103.21111968 282.12304688 98.89453125 C282.55975032 92.83156115 280.68107426 88.6622251 277.10861206 83.90965271 C270.88210096 76.75332179 265.09859302 74.15368829 255.65693665 73.43414307 C249.78913156 73.2527816 243.95019409 73.31534681 238.08343506 73.50646973 C234.68430884 73.60071025 231.28500118 73.60780246 227.88476562 73.62304688 C221.25357594 73.66996743 214.6282888 73.80132801 208 74 C207.78109946 81.30317342 207.64672647 88.60308053 207.61396885 95.90960026 C207.59622374 99.30472482 207.55171209 102.6946635 207.44116211 106.08813477 C206.52371498 125.0023911 206.52371498 125.0023911 214.75 141.3125 C223.38276956 149.2040756 234.51647027 148.65862378 245.58007812 148.31835938 C248.19929901 148.19307306 250.81843969 148.0660994 253.4375 147.9375 C256.11490569 147.85351155 258.79267182 147.79268402 261.47070312 147.73242188 C267.98499152 147.56833498 274.4915259 147.31844111 281 147 C280.96519531 145.90300781 280.93039062 144.80601562 280.89453125 143.67578125 C280.86638135 142.22136955 280.83908248 140.7669412 280.8125 139.3125 C280.78736328 138.59126953 280.76222656 137.87003906 280.73632812 137.12695312 C280.67388923 132.56891397 281.04255839 129.55030869 284 126 C287.13161897 125.4780635 289.00930113 125.30413638 291.66040039 127.16625977 C294.58827502 131.17414502 293.46573794 137.17042275 293.4375 141.9375 C293.45748047 143.13052734 293.47746094 144.32355469 293.49804688 145.55273438 C293.49740234 146.69935547 293.49675781 147.84597656 293.49609375 149.02734375 C293.49794678 150.07656006 293.4997998 151.12577637 293.50170898 152.20678711 C292.85763799 155.79258579 291.85540723 156.77221201 289 159 C285.95330811 159.52812195 285.95330811 159.52812195 282.33886719 159.56518555 C281.34777199 159.58292778 281.34777199 159.58292778 280.33665466 159.60102844 C278.15638838 159.63387335 275.9773723 159.63687243 273.796875 159.63671875 C272.27475479 159.64703888 270.75263945 159.65810263 269.23052979 159.6698761 C266.03946138 159.68930587 262.84883111 159.69273197 259.65771484 159.6862793 C255.58397379 159.68029611 251.51252189 159.72443296 247.43925095 159.78216839 C244.29399051 159.81929577 241.14927441 159.82406078 238.00382233 159.81989479 C236.50318351 159.82275395 235.0025205 159.83672715 233.50209808 159.86237144 C220.33315469 160.06372322 220.33315469 160.06372322 215.20410156 155.63598633 C214.10314302 154.45381901 213.03162871 153.24312971 212 152 C211.00790611 150.99215591 210.01043723 149.98945268 209 149 C209.00902344 149.9178125 209.01804688 150.835625 209.02734375 151.78125 C208.99769531 153.0084375 208.96804687 154.235625 208.9375 155.5 C208.92009766 157.30984375 208.92009766 157.30984375 208.90234375 159.15625 C208.00844891 162.96400984 207.53715452 163.87365977 205.04516602 166.61499023 C204.41038834 167.31449799 203.77561066 168.01400574 203.12159729 168.73471069 C196.97028273 175.30264287 190.68221436 181.73474252 184.35940552 188.13722324 C181.92364988 190.60371633 179.49661114 193.07762997 177.08789062 195.57055664 C174.28925535 198.46668127 171.4587675 201.32964326 168.625 204.19140625 C167.76438965 205.09016983 166.9037793 205.98893341 166.01708984 206.91493225 C165.19934082 207.73005783 164.3815918 208.54518341 163.5390625 209.38500977 C162.82959473 210.10922623 162.12012695 210.83344269 161.38916016 211.5796051 C159 213 159 213 155.53463745 213.0007019 C151.49954087 211.8583135 149.8345775 210.56856492 146.90673828 207.60375977 C146.21998772 206.92073288 146.21998772 206.92073288 145.5193634 206.22390747 C144.02154895 204.72700553 142.54615912 203.2099451 141.0703125 201.69140625 C140.0302065 200.64263862 138.98883459 199.59512506 137.94625854 198.54881287 C135.21391097 195.79928278 132.50047648 193.03178378 129.79022217 190.26049805 C127.5703198 187.99690226 125.33734599 185.74645487 123.10356331 183.49656773 C120.44234216 180.81576351 117.78665089 178.12951734 115.1328125 175.44140625 C114.6256583 174.92782625 114.1185041 174.41424625 113.5959816 173.88510323 C112.16666951 172.43484831 110.74167336 170.98034356 109.31689453 169.52563477 C108.09947067 168.28439598 108.09947067 168.28439598 106.85745239 167.01808167 C103.58580156 163.46350412 103.7399548 160.62786107 103.4375 155.875 C103.35371094 154.59367188 103.26992187 153.31234375 103.18359375 151.9921875 C103.12300781 151.00476563 103.06242188 150.01734375 103 149 C102.37351563 149.63808594 101.74703125 150.27617187 101.1015625 150.93359375 C99.87566406 152.17302734 99.87566406 152.17302734 98.625 153.4375 C97.81289062 154.26121094 97.00078125 155.08492187 96.1640625 155.93359375 C92.59547052 159.34114819 90.36039204 159.13745527 85.50244141 159.17700195 C84.83557816 159.18357315 84.1687149 159.19014435 83.48164368 159.19691467 C81.27161551 159.21664891 79.06165526 159.22830976 76.8515625 159.23828125 C76.09714245 159.24235678 75.3427224 159.2464323 74.56544113 159.25063133 C70.5732526 159.27149151 66.58109844 159.28579404 62.58886719 159.29516602 C58.46378506 159.3062372 54.33924137 159.34064473 50.21434975 159.38033772 C47.04361969 159.40646996 43.87301868 159.41485473 40.7021904 159.41844749 C39.18152602 159.42332143 37.66086771 159.43495845 36.14030838 159.45348549 C34.01188587 159.47780916 31.88486631 159.47692555 29.75634766 159.4699707 C28.54548492 159.47583694 27.33462219 159.48170319 26.08706665 159.48774719 C23 159 23 159 20.61305237 157.38694763 C18.4771161 154.22625173 18.47382299 152.14297842 18.43481445 148.33886719 C18.41707222 147.34777199 18.41707222 147.34777199 18.39897156 146.33665466 C18.36612665 144.15638838 18.36312757 141.9773723 18.36328125 139.796875 C18.35296112 138.27475479 18.34189737 136.75263945 18.3301239 135.23052979 C18.31069413 132.03946138 18.30726803 128.84883111 18.3137207 125.65771484 C18.31970389 121.58397379 18.27556704 117.51252189 18.21783161 113.43925095 C18.18070423 110.29399051 18.17593922 107.14927441 18.18010521 104.00382233 C18.17724605 102.50318351 18.16327285 101.0025205 18.13762856 99.50209808 C17.93627678 86.33315469 17.93627678 86.33315469 22.36401367 81.20410156 C23.54618099 80.10314302 24.75687029 79.03162871 26 78 C27.00784409 77.00790611 28.01054732 76.01043723 29 75 C28.0821875 75.00902344 27.164375 75.01804687 26.21875 75.02734375 C24.9915625 74.99769531 23.764375 74.96804687 22.5 74.9375 C21.2934375 74.92589844 20.086875 74.91429688 18.84375 74.90234375 C15.03350789 74.00786618 14.1138791 73.52755936 11.36694336 71.03369141 C10.66749603 70.39900436 9.96804871 69.76431732 9.24740601 69.11039734 C2.34884934 62.63239755 -4.35322022 55.95413399 -11.06567383 49.28442383 C-12.98591855 47.37760739 -14.91321505 45.47836468 -16.84692383 43.58520508 C-19.65037093 40.84048961 -22.43326012 38.07547275 -25.21484375 35.30859375 C-26.08141098 34.46469589 -26.94797821 33.62079803 -27.84080505 32.75132751 C-28.63575882 31.95352371 -29.43071259 31.15571991 -30.24975586 30.33374023 C-30.9517662 29.63981674 -31.65377655 28.94589325 -32.37705994 28.23094177 C-34.38334776 25.47303874 -34.76019997 23.37555207 -35 20 C-33.77385686 17.68026973 -32.17278099 16.23363076 -30.328125 14.3671875 C-28.55005225 12.55928132 -27.00011259 10.78902985 -25.421875 8.8203125 C-17.71551316 -0.35091721 -11.71106779 -1.6050702 0 0 Z M86.94897461 32.92163086 C86.30838608 33.55906723 85.66779755 34.1965036 85.00779724 34.85325623 C84.31299759 35.55008011 83.61819794 36.24690399 82.90234375 36.96484375 C82.19348526 37.67274551 81.48462677 38.38064728 80.75428772 39.11000061 C79.25252228 40.61108393 77.75202544 42.1134373 76.25268555 43.61694336 C73.94756274 45.92741391 71.63716888 48.23251607 69.32617188 50.53710938 C67.87207507 51.99186695 66.41828849 53.44693469 64.96484375 54.90234375 C64.26801987 55.5971434 63.57119598 56.29194305 62.85325623 57.00779724 C62.21581985 57.64838577 61.57838348 58.2889743 60.92163086 58.94897461 C60.3561705 59.51523056 59.79071014 60.08148651 59.20811462 60.66490173 C57.88817253 61.82348764 57.88817253 61.82348764 58 63 C73.18 63 88.36 63 104 63 C105.68422853 44.95010457 105.68422853 44.95010457 101.19140625 38.203125 C99.45869082 36.59734113 99.45869082 36.59734113 97.5625 35.25 C96.95083984 34.72019531 96.33917969 34.19039062 95.70898438 33.64453125 C91.13807318 29.48719972 91.13807318 29.48719972 86.94897461 32.92163086 Z M214.4375 35.25 C213.82197266 35.70246094 213.20644531 36.15492187 212.57226562 36.62109375 C210.31847315 38.48097522 210.31847315 38.48097522 208 43 C208 49.6 208 56.2 208 63 C223.18 63 238.36 63 254 63 C250.02127355 58.35815247 246.07566392 53.92651734 241.76171875 49.62890625 C241.19548294 49.06171371 240.62924713 48.49452118 240.04585266 47.91014099 C238.86309421 46.72670827 237.67909712 45.54451227 236.49389648 44.36352539 C234.67117911 42.54622764 232.85394191 40.72356975 231.03710938 38.90039062 C229.88313353 37.74707453 228.7288481 36.59406809 227.57421875 35.44140625 C227.0294841 34.89464737 226.48474945 34.34788849 225.92350769 33.78456116 C220.60612391 28.50062643 219.69197875 30.69870228 214.4375 35.25 Z M32.578125 84.62109375 C26.67058738 95.07951941 28.39360331 107.95987051 29 119.5 C29.0896264 122.17296117 29.15336904 124.84577672 29.21875 127.51953125 C29.39364989 134.01819402 29.66007974 140.50798546 30 147 C36.79397005 150.39698502 47.73635801 148.79120655 55.19775391 148.9543457 C57.79189589 149.02578701 60.38539739 149.12776459 62.97705078 149.26196289 C80.19073914 150.29435813 80.19073914 150.29435813 95.646698 143.72666931 C102.60688409 137.35576512 104.80703775 130.86264249 105.47024536 121.56190491 C105.61223666 115.69491188 105.41648824 109.8732612 105.09863281 104.01477051 C104.93261198 100.62346625 104.86140256 97.23016418 104.78125 93.8359375 C104.6063154 87.21888175 104.33985127 80.61053107 104 74 C96.71594114 73.62552227 89.43402268 73.34319685 82.14221191 73.17100525 C78.753734 73.08824652 75.37193427 72.97660357 71.98730469 72.79296875 C49.59527205 71.65877726 49.59527205 71.65877726 32.578125 84.62109375 Z M115 74 C115 89.18 115 104.36 115 120 C119.6525442 116.01210497 124.07770099 112.06156223 128.37109375 107.7265625 C128.93828629 107.15795502 129.50547882 106.58934753 130.08985901 106.00350952 C131.87479913 104.21303764 133.65620256 102.41909516 135.4375 100.625 C136.65796939 99.39950677 137.87867053 98.17424428 139.09960938 96.94921875 C142.06908756 93.96880226 145.03540257 90.98527106 148 88 C147.154375 86.989375 146.30875 85.97875 145.4375 84.9375 C144.96183594 84.36902344 144.48617187 83.80054687 143.99609375 83.21484375 C141.1222754 80.0260864 138.03537521 77.03537521 135 74 C128.4 74 121.8 74 115 74 Z M172.203125 76.84375 C170.59711523 78.59031196 170.59711523 78.59031196 169.25 80.5 C168.72019531 81.12003906 168.19039062 81.74007812 167.64453125 82.37890625 C166.37733672 83.87649979 165.17982008 85.43264778 164 87 C167.89548093 91.65834119 171.93698906 96.08608774 176.23828125 100.37109375 C176.80451706 100.93828629 177.37075287 101.50547882 177.95414734 102.08985901 C179.13690579 103.27329173 180.32090288 104.45548773 181.50610352 105.63647461 C183.32882089 107.45377236 185.14605809 109.27643025 186.96289062 111.09960938 C188.11686647 112.25292547 189.2711519 113.40593191 190.42578125 114.55859375 C190.9705159 115.10535263 191.51525055 115.65211151 192.07649231 116.21543884 C194.18507119 118.82278751 194.18507119 118.82278751 197 120 C197 104.82 197 89.64 197 74 C178.93792471 72.30014669 178.93792471 72.30014669 172.203125 76.84375 Z M151.10107422 99.30688477 C150.3003952 100.03347794 149.49971619 100.76007111 148.67477417 101.50868225 C145.00520718 104.91583813 141.37259883 108.35969782 137.75927734 111.82641602 C135.85495712 113.63289281 133.92865485 115.41650907 131.97998047 117.17504883 C118.90896195 128.78636533 118.90896195 128.78636533 112.62625122 144.60531616 C112.24140152 154.01117759 115.09579046 160.23533589 121.18624878 167.30015564 C125.58038582 171.92085418 130.25753158 176.18002059 135 180.4375 C136.93230718 182.25422539 138.85944888 184.07646137 140.78125 185.90429688 C145.46314928 190.33484748 150.20429118 194.69306604 155 199 C163.00748597 195.38985877 169.27511256 187.86914262 175.53710938 181.87719727 C177.33086859 180.18142328 179.14657835 178.5085414 180.984375 176.8605957 C193.45432734 165.7063429 193.45432734 165.7063429 199.29025269 150.47186279 C199.69207431 141.05495458 196.95152961 134.80191911 190.86779785 127.69737244 C186.49822594 123.07740703 181.84341135 118.82053001 177.125 114.5625 C175.20971694 112.74562364 173.2995047 110.9233861 171.39453125 109.09570312 C167.92532768 105.7997474 164.44266198 102.52272341 160.89892578 99.30688477 C160.1927713 98.66566177 159.48661682 98.02443878 158.75906372 97.36378479 C155.32183979 94.69893891 153.92553265 96.74213762 151.10107422 99.30688477 Z " fill="#225D59" transform="translate(41,0)"/>
<path d="M0 0 C0.99 0.33 1.98 0.66 3 1 C-3.27 7.27 -9.54 13.54 -16 20 C-16.66 19.34 -17.32 18.68 -18 18 C-12.06 12.06 -6.12 6.12 0 0 Z " fill="#1E6E68" transform="translate(25,0)"/>
</svg>
